<?xml version="1.0" encoding="UTF-8"?>
<!DOCTYPE svg PUBLIC "-//W3C//DTD SVG 1.1//EN" "http://www.w3.org/Graphics/SVG/1.1/DTD/svg11.dtd">
<!-- Creator: CorelDRAW 2019 (64 Bit) -->
<svg xmlns="http://www.w3.org/2000/svg" xml:space="preserve" width="71.9666mm" height="25.3998mm" version="1.1" style="shape-rendering:geometricPrecision; text-rendering:geometricPrecision; image-rendering:optimizeQuality; fill-rule:evenodd; clip-rule:evenodd"
viewBox="0 0 7196.66 2539.98"
 xmlns:xlink="http://www.w3.org/1999/xlink">
 <defs>
  <style type="text/css">
   <![CDATA[
    .fil0 {fill:black;fill-rule:nonzero}
    .fil1 {fill:#999999;fill-rule:nonzero}
   ]]>
  </style>
 </defs>
 <g id="Camada_x0020_1">
  <metadata id="CorelCorpID_0Corel-Layer"/>
  <path class="fil0" d="M224.36 1483.98l0 -1257.73 261 0c188.02,0 324.65,15.18 409.61,45.25 122.04,42.92 217.51,116.79 286.11,222.47 68.61,105.4 103.06,230.94 103.06,376.91 0,126.12 -27.15,236.77 -81.74,332.53 -54.31,95.76 -125.25,166.71 -211.96,212.25 -87,45.55 -209.04,68.32 -365.82,68.32l-400.26 0zm120.87 -119.12l145.1 0c173.42,0 293.41,-10.8 360.56,-32.4 94.3,-30.95 168.75,-86.13 222.76,-166.12 54.01,-80.29 80.87,-178.09 80.87,-293.71 0,-121.16 -29.2,-225.09 -87.88,-310.93 -58.39,-86.12 -140.14,-145.1 -244.66,-176.92 -78.53,-23.94 -207.87,-35.91 -388,-35.91l-88.75 0 0 1015.99zm1697.69 -1138.61l586.82 1257.73 -135.17 0 -196.48 -413.4 -545.08 0 -195.31 413.4 -140.14 0 593.83 -1257.73 31.53 0zm-15.76 263.93l-216.34 457.78 431.8 0 -215.46 -457.78zm2012.13 -53.14l-97.52 92.26c-70.36,-68.9 -147.43,-121.16 -231.22,-156.78 -83.79,-35.62 -165.54,-53.43 -245.24,-53.43 -98.97,0 -193.27,24.23 -282.61,72.7 -89.63,48.46 -159.11,114.15 -208.16,197.36 -49.34,82.91 -73.87,170.5 -73.87,263.05 0,94.59 25.4,184.51 76.2,270.05 50.8,85.25 121.16,152.11 210.79,200.86 89.92,48.76 188.02,73.28 294.87,73.28 129.63,0 239.4,-36.49 329.03,-109.19 89.63,-72.69 142.77,-167.28 159.41,-283.19l-401.14 0 0 -122.62 543.03 0c-1.17,194.15 -58.98,348.59 -173.42,462.75 -114.74,114.15 -267.72,171.37 -459.83,171.37 -232.97,0 -417.49,-79.12 -553.54,-237.65 -104.51,-122.03 -156.77,-263.05 -156.77,-423.33 0,-118.82 30.07,-229.76 89.92,-332.53 60.14,-102.48 142.47,-182.76 246.99,-240.57 104.81,-57.81 223.05,-86.71 355.01,-86.71 106.86,0 207.58,19.27 301.88,57.52 94.3,38.53 186.56,99.84 276.19,184.8zm257.5 1046.94l174.29 -1257.73 25.98 0 511.8 1031.76 508.58 -1031.76 18.97 0 181.01 1257.73 -121.74 0 -126.12 -900.38 -445.52 900.38 -32.99 0 -449.9 -907.39 -120.58 907.39 -123.78 0zm2179.12 -1257.73l586.82 1257.73 -135.17 0 -196.48 -413.4 -545.08 0 -195.31 413.4 -140.14 0 593.83 -1257.73 31.53 0zm-15.76 263.93l-216.34 457.78 431.8 0 -215.46 -457.78z"/>
  <g id="_1850988442768">
   <path class="fil1" d="M2078.57 2221.16l4.37 -17.8c-4.08,-3.51 -6.13,-7.89 -6.13,-12.85 0,-24.52 4.09,-40.87 11.68,-48.76 7.59,-7.88 14.89,-20.73 21.31,-37.95 6.72,-17.52 12.27,-28.32 16.65,-32.11 4.67,-4.09 9.92,-15.77 16.34,-35.04 6.14,-19.56 20.44,-39.12 42.63,-58.97 4.09,-29.2 16.93,-46.72 38.54,-52.26l31.53 -49.63c2.92,-3.51 7,-5.84 12.55,-7.3 5.26,-1.46 12.26,-5.84 21.02,-13.14 3.21,-13.14 14.31,-24.23 33.28,-33.28l24.82 -24.82 13.72 -7.01c3.21,-2.33 11.97,-10.21 26.28,-23.94 14.3,-13.72 28.32,-24.52 42.33,-32.99 14.01,-8.17 27.15,-16.05 39.71,-23.94 12.55,-7.59 20.14,-14.3 22.77,-20.43 2.63,-5.84 7.01,-15.48 13.14,-28.03 6.42,-12.85 11.97,-26.57 17.22,-40.87l16.93 -22.19c1.17,-1.17 1.76,-2.34 1.76,-3.21 0,-1.17 -1.17,-4.38 -3.51,-9.64l0 -1.75c0,-12.26 5.55,-25.4 16.94,-38.83 11.09,-13.43 16.64,-28.32 16.64,-44.67 0,-4.67 4.08,-13.14 12.26,-25.4 8.17,-12.26 14.6,-19.56 19.27,-21.89l-3.51 -21.32c3.51,-9.05 7.6,-16.35 11.97,-21.6 4.68,-5.55 9.06,-18.39 13.73,-39.12 6.13,-14.02 12.26,-21.32 18.1,-21.32 4.38,0 8.17,2.92 11.09,8.47 2.63,5.84 4.67,8.76 5.84,8.76 1.17,-1.17 1.75,-2.34 1.75,-3.5 0,-6.72 -2.92,-11.39 -8.46,-14.02 -5.84,-2.62 -8.76,-5.84 -8.76,-9.92 0,-14.31 2.04,-24.82 6.13,-31.53 3.79,-7.01 6.13,-12.85 6.71,-17.52 0.59,-4.96 2.92,-9.05 6.43,-12.56 3.79,-3.5 5.84,-7 6.42,-11.09 0.58,-4.09 1.46,-8.47 2.63,-13.72l0 -8.47c0,-5.84 3.79,-13.43 11.09,-23.65 7.3,-9.92 11.68,-16.05 12.85,-18.39 1.16,-2.04 2.33,-3.79 3.5,-4.96l7.59 -1.75 1.75 -5.26c-8.46,-0.87 -12.84,-5.84 -12.84,-14.3 0,-9.35 6.42,-16.06 19.56,-20.73 -3.51,-7.3 -4.97,-13.14 -4.97,-17.81 0,-14.89 7.3,-22.19 22.19,-22.19l5.84 0 1.75 -4.38c-4.96,-5.55 -7.59,-10.8 -7.59,-15.47 0,-19.86 4.67,-29.78 14.6,-29.78 0.88,0 2.63,0.58 4.96,1.75l5.26 1.75 0 -5.25c-7.01,-6.14 -10.22,-11.97 -10.22,-16.94l6.72 -19.85 -1.76 -13.72c0,-5.55 3.21,-9.93 9.35,-13.14 6.42,-3.21 9.63,-5.84 9.63,-8.17l2.34 -8.47c1.16,-2.34 1.75,-9.34 1.75,-21.31 2.92,-2.92 5.25,-6.43 7,-10.22l0 -5.26 -1.75 -18.1c0,-0.87 1.46,-4.09 4.09,-9.34 2.92,-4.96 4.38,-8.76 4.38,-11.09 0,-39.71 -10.51,-67.74 -31.53,-83.79 -7.01,-1.17 -12.56,-3.8 -17.23,-7.6 -1.16,0 -2.62,-0.58 -4.38,-1.75l-28.9 0 -26.57 12.85 -15.47 -1.75c-7.3,7.88 -11.68,11.97 -12.85,11.97l-11.97 -1.75c-2.04,0 -5.54,3.21 -9.63,9.34 -4.38,6.42 -9.63,10.8 -15.77,13.72 -6.42,2.92 -13.13,8.47 -20.14,16.64 -7.3,8.47 -14.31,14.01 -21.02,16.64 -6.72,2.92 -12.55,6.43 -16.64,10.8 -4.38,4.38 -13.43,11.1 -26.86,20.15 -5.84,15.47 -16.94,25.98 -33.58,31.53 -2.04,2.34 -4.38,8.76 -6.71,19.85 -15.47,12.85 -27.74,26.86 -36.79,41.75l-68.31 101.6c-2.34,2.92 -4.38,9.64 -6.13,19.85 -1.76,10.22 -3.51,16.35 -5.84,18.69l-14.6 15.47 0 3.51 1.75 8.46c-12.55,11.39 -18.98,18.39 -18.98,21.31 0,4.68 0.59,8.47 1.76,11.97l0 9.35c0,0.58 -3.51,13.72 -10.22,39.41l-9.64 37.66c-2.04,4.67 -3.21,11.39 -3.21,20.44l-8.76 53.13c0,0.59 2.05,3.8 6.13,9.64 4.09,6.13 5.84,10.22 5.84,12.55l-1.75 21.31 1.75 31.54 -4.96 18.97c4.38,6.13 10.51,17.23 17.81,33.28l7.01 11.1 1.75 0 -1.75 22.19c10.21,7.59 18.1,18.1 23.64,32.11 5.26,14.02 14.02,22.77 25.7,25.99 11.67,3.5 21.31,14.3 29.48,32.11 7.88,18.1 11.97,34.16 11.97,48.46 0,17.52 -4.09,26.28 -11.97,26.28 -20.73,0 -32.7,-2.04 -36.49,-6.71 -3.8,-4.68 -10.8,-16.35 -21.9,-35.04l-22.19 -56.35 -25.69 -45.54c-5.25,-8.47 -8.46,-16.64 -10.22,-24.82 -1.75,-7.88 -4.96,-14.01 -9.92,-18.68 -4.97,-4.67 -7.3,-8.18 -7.3,-11.1l1.75 -13.72 -3.5 -18.1c0,-5.54 -1.76,-11.68 -5.26,-18.68 -3.21,-6.72 -5.25,-15.18 -5.84,-25.11 -0.58,-10.22 -2.92,-18.1 -7.3,-23.94 -4.38,-6.13 -6.42,-14.31 -6.42,-24.52 0,-4.38 -1.75,-11.68 -5.25,-21.32 1.16,-5.84 1.75,-16.93 1.75,-33.28l-4.97 -25.69 0 -3.5 -1.75 -11.1 0 -3.5c0,-44.38 5.26,-84.67 16.06,-120.58 1.17,-3.21 1.75,-9.92 1.75,-19.56l17.23 -58.97 12.84 -28.32c10.22,-25.11 19.86,-42.92 28.61,-53.72 8.76,-10.8 14.6,-19.85 16.64,-27.15 2.34,-7.01 9.93,-13.43 22.49,-18.98 10.8,-20.14 17.22,-31.24 19.56,-33.57l10.21 -1.46c8.18,-17.23 20.44,-27.16 36.79,-30.08 0,-13.72 13.43,-26.56 40.29,-38.53 9.63,-5.55 17.22,-11.97 22.19,-18.69 5.25,-7 13.72,-10.22 25.69,-10.22l92.55 -35.32c1.75,-0.88 6.71,2.33 14.6,10.51l1.75 0c3.5,0 5.25,-2.05 5.84,-6.13 0.58,-3.8 2.92,-7.01 7,-9.05 4.09,-1.76 7.59,-5.26 11.1,-9.64l3.5 0 12.85 3.21c23.35,0 40.29,-1.46 50.5,-4.96l13.73 0 7.59 -1.75c42.91,0 69.77,8.76 80.58,26.57l52.26 45.25 9.34 28.32 4.96 57.22 0 19.56 -7.59 13.72c1.75,3.51 2.63,6.13 2.63,7.59l-12.85 108.61 -16.35 50.51c-11.97,41.16 -21.6,63.06 -29.48,65.98 -7.6,2.92 -11.39,4.67 -11.39,5.84 4.38,6.42 6.71,11.38 6.71,15.47l-3.5 11.1 0 13.72 -11.97 41.16c-3.21,14.02 -11.09,25.11 -23.06,32.41 -2.34,0 -3.51,1.17 -3.51,3.5l7.01 8.47 0 3.5c0,2.63 -1.17,8.18 -3.5,16.06 -2.34,8.17 -3.51,14.89 -4.09,20.14 -0.58,5.55 -3.8,9.35 -9.05,11.68 -5.55,2.05 -8.76,4.97 -9.93,8.47l0 23.06c0,6.43 -5.25,13.72 -15.76,22.19 -10.51,8.47 -15.77,14.02 -15.77,16.35l1.75 20.44c-3.5,5.84 -7,15.18 -10.51,28.32 -3.21,13.13 -7.3,21.6 -12.26,25.69 -4.96,3.79 -7.59,9.34 -8.17,16.06 -0.59,7 -5.26,16.34 -13.73,28.61 -8.46,12.26 -12.84,20.43 -12.84,24.52 0,3.5 1.17,4.96 3.5,4.96 5.84,0 11.68,-4.38 17.52,-13.13 6.13,-8.76 18.1,-17.23 36.49,-25.11l28.03 -23.07c4.67,-4.67 11.68,-8.75 21.02,-11.97 9.34,-3.5 21.31,-13.13 35.91,-29.19 14.6,-16.06 30.07,-26.28 46.42,-30.95l23.94 -16.93c6.72,-4.09 12.26,-6.13 16.64,-6.13 11.68,0 17.52,6.13 17.52,18.1 0,4.67 -1.75,11.09 -5.55,20.14 -3.79,8.76 -5.84,16.94 -6.71,24.82 -0.88,7.59 -8.47,16.06 -22.77,25.11l-10.81 10.22 -17.22 -1.76c-4.38,2.34 -9.34,8.18 -14.31,17.52 -5.25,9.64 -10.22,14.31 -15.47,14.31 -4.38,0 -9.64,1.75 -15.18,4.96l-11.1 3.5 -8.76 0c-2.04,1.76 -5.25,6.72 -9.34,14.6 -3.79,7.88 -9.63,12.85 -16.93,14.6l-56.93 30.65 -5.26 0c-11.97,11.97 -19.56,18.98 -23.06,20.44l-15.18 0c-25.99,18.98 -40.88,30.65 -44.38,35.03 0,18.98 -5.55,31.83 -16.93,38.54l-1.75 0 1.75 19.85c0,2.05 -4.97,7.89 -14.6,16.94 -1.17,0 -1.46,2.04 -1.46,6.13l1.46 13.72 0 1.46c0,2.34 -4.38,10.22 -13.43,23.65 -9.05,13.43 -14.89,23.06 -17.22,28.61 1.16,2.92 1.75,6.13 1.75,9.34 0,9.34 -6.43,16.64 -19.56,22.19 0,4.67 -8.47,23.65 -25.11,56.93 -16.64,33.28 -28.9,54.89 -36.2,64.52l-87.3 164.37c-3.21,3.21 -7.88,5.55 -13.72,6.72 -3.79,9.63 -10.51,16.93 -19.56,21.31 0,17.81 -6.71,29.49 -20.44,35.32 -5.25,13.43 -12.26,24.53 -21.31,33.29 -3.5,21.6 -9.05,33.28 -16.93,35.32 -7.59,2.05 -12.26,6.72 -14.02,14.31 -1.75,7.3 -8.17,12.84 -19.56,16.93 -4.08,19.56 -12.84,29.78 -26.56,30.95 -4.67,4.96 -8.18,11.68 -10.81,19.56 -2.33,7.88 -9.92,14.89 -22.18,21.02 -12.27,5.84 -22.48,12.55 -30.37,20.14 -7.88,7.3 -17.22,13.43 -28.02,18.69 -25.7,-1.75 -46.72,-16.64 -63.07,-44.38 -16.35,-28.02 -24.23,-54.88 -24.23,-80.58l3.21 -28.02 -1.46 -25.69 15.19 -30.08zm71.82 43.8l4.37 10.51 0.88 13.43c1.17,4.08 2.34,6.13 4.09,6.13 5.84,0 12.55,-7.01 20.73,-21.31l21.31 -22.19c9.05,-9.93 16.06,-23.07 21.02,-40 4.67,-16.64 14.6,-26.28 29.49,-28.61 2.04,-23.36 16.64,-51.38 43.5,-83.79 2.33,-4.09 4.67,-10.8 7.59,-20.15 2.92,-9.34 7.3,-17.51 12.84,-24.23 5.84,-7.01 9.05,-13.14 9.93,-18.39 0.88,-5.55 7.3,-15.18 19.27,-28.9 1.75,-14.02 6.71,-28.91 15.18,-44.38 8.76,-15.47 17.52,-31.82 26.57,-49.63l30.07 -59.85 51.97 -75.33c0,-3.5 -0.88,-4.96 -2.34,-4.96l-32.7 16.93c-11.38,4.67 -19.27,10.81 -23.35,18.4 -4.38,7.88 -7.59,11.67 -9.93,11.67 -7.3,0 -14.31,5.84 -20.44,17.52 -6.42,11.68 -12.84,20.73 -19.85,26.86 -6.71,6.42 -11.97,10.51 -15.18,12.56 -3.5,1.75 -5.26,3.5 -5.26,4.67 0,1.16 -2.04,6.71 -5.84,16.93 -5.83,4.67 -12.55,12.26 -20.72,22.77 -7.89,10.51 -14.02,17.23 -18.4,19.56 -4.08,2.63 -9.05,11.39 -14.89,26.28l-13.72 8.46c-4.96,14.89 -9.92,26.57 -14.3,35.04l-11.97 1.75c-4.09,6.72 -6.43,13.43 -7.01,20.15 -0.58,6.42 -1.75,9.92 -3.5,9.92l-9.35 3.21c-2.04,2.92 -6.13,10.51 -11.97,23.07l-6.71 5.25c-2.34,2.34 -3.5,9.93 -3.5,23.07 0,5.84 -2.63,11.97 -8.18,18.97 -5.25,6.72 -10.22,17.23 -14.89,31.53l-10.22 28.32c0,7.89 -2.33,16.94 -7,27.45l-9.35 5.84c0,4.67 -1.75,17.51 -4.96,38.53 2.63,4.97 4.96,10.81 6.72,16.94zm1120.51 -452.82l-40.29 35.03c-2.34,-2.33 -4.38,-3.21 -6.72,-3.21 -5.84,0 -12.84,4.97 -21.02,15.18 -8.17,10.22 -14.01,15.48 -17.51,15.48l-8.47 -1.75c-14.31,10.8 -24.52,17.22 -30.95,18.97 -6.13,1.46 -13.72,4.67 -22.77,9.35 -8.76,4.37 -16.64,7 -23.94,7.59 -7.01,0.58 -12.85,2.92 -17.52,7.29 -4.38,4.38 -15.47,6.43 -33.28,6.43l-13.72 -1.75c-7.3,3.5 -12.26,5.25 -14.6,5.25 -4.38,0 -9.34,-2.63 -14.6,-7.3 -4.96,-4.96 -10.51,-7.59 -16.64,-8.17 -5.84,-0.59 -11.97,-4.67 -18.39,-11.97 -6.13,-7.3 -11.97,-12.56 -17.52,-15.48 -5.25,-2.62 -9.92,-6.71 -13.13,-11.97l-11.97 -10.21c-9.93,-6.72 -19.27,-19.27 -28.32,-37.67 -9.05,-18.1 -13.73,-32.4 -13.73,-42.62l0 -3.5 1.76 -16.35 -1.76 -18.69c2.34,-2.33 5.26,-7.3 8.47,-14.6l0 -27.44 20.73 -68.32c1.17,-2.92 -1.17,-6.71 -7.01,-11.09 -5.54,8.47 -11.38,13.72 -16.93,15.47 -5.84,1.46 -9.64,5.55 -11.39,11.97 -2.04,6.13 -5.25,9.35 -9.92,9.35l-10.22 -3.51c-0.88,1.17 -3.51,7.01 -7.59,17.52 -3.8,10.51 -10.51,15.76 -20.15,15.76 -10.22,0 -15.18,-3.79 -15.18,-11.97l1.46 -15.18 -4.96 -21.6c0,-4.38 4.67,-13.43 13.72,-26.86 9.05,-13.43 17.52,-21.02 25.11,-23.06 7.88,-2.05 14.3,-7.6 19.56,-16.35 5.55,-8.76 17.22,-19.57 35.62,-32.12 10.21,-2.04 18.97,-9.63 26.56,-22.19 7.89,-6.13 18.4,-11.38 30.95,-15.47 12.85,-3.8 22.48,-9.64 29.2,-17.52 6.42,-7.59 25.98,-19.56 58.09,-35.91 32.12,-16.06 55.77,-24.23 70.36,-24.23 4.68,0 10.81,-1.46 18.98,-3.8 7.88,-2.62 15.18,-4.96 22.19,-7 6.71,-2.05 14.01,-4.97 21.31,-9.34 7.3,-4.38 13.43,-6.43 17.81,-6.43l24.82 8.47c18.39,5.25 29.48,9.05 33.28,11.09 1.17,1.17 7.01,3.8 17.52,7.3 10.51,3.8 21.31,8.76 32.7,15.18 11.09,6.13 16.64,17.81 16.64,35.04 -9.93,14.3 -14.6,21.89 -14.6,23.06 0,2.34 6.42,5.55 19.56,10.22 4.67,8.47 11.39,19.56 20.44,33.28l9.63 30.07 1.46 70.07 -1.46 6.72c-6.42,5.84 -9.63,9.63 -9.63,11.38l2.62 16.94 -6.71 23.94c-1.75,7.59 -4.67,12.26 -8.76,14.59 -3.79,2.34 -6.42,5.26 -7.59,8.47l-5.26 7.01c-0.87,1.75 -3.5,6.71 -7.29,14.89 -3.51,8.17 -7.59,14.59 -12.27,19.27 -4.67,4.67 -7.29,9.92 -8.46,16.35 -1.17,6.13 -4.09,10.8 -8.76,13.72 -4.38,2.62 -7.59,5.84 -9.64,8.76 -2.04,3.21 -5.25,5.83 -9.92,8.17zm-266.55 21.9l3.5 19.56 1.46 1.75 13.72 0 4.38 1.75c11.39,2.34 19.85,3.5 25.69,3.5 17.52,0 31.53,-4.38 42.04,-13.43 10.81,-8.75 18.98,-13.13 25.4,-13.13 6.13,0 11.39,-4.38 15.77,-12.85 4.38,-8.47 7.01,-12.85 8.17,-12.85l11.97 0 3.21 -1.75c0,-13.13 5.84,-22.48 17.52,-28.32 11.68,-5.54 20.15,-13.13 24.82,-22.48 4.96,-9.34 10.51,-16.64 16.64,-21.31 6.42,-4.96 10.51,-11.39 12.84,-19.27l7.01 -10.51c2.05,-2.04 3.21,-6.42 3.21,-12.84l16.35 -30.66c3.51,-14.3 4.97,-25.4 4.97,-33.28 0,-11.97 -6.14,-21.31 -18.4,-28.32 -11.97,-6.72 -18.1,-20.15 -18.1,-40.29 0,-13.14 6.42,-25.11 19.85,-36.2 13.43,-11.1 20.15,-17.81 20.15,-20.15 0,-3.5 -1.75,-5.25 -4.96,-5.25 -1.76,0 -8.47,2.33 -19.86,7 -3.79,7.89 -24.23,18.4 -60.72,31.54 -11.68,-5.55 -18.4,-8.47 -19.56,-8.47 -3.22,0 -6.72,3.5 -10.22,10.22 -3.51,7 -6.72,11.68 -10.22,14.59l-11.09 0c-1.17,0 -4.97,3.8 -11.1,11.1 -6.42,7.3 -14.3,11.09 -23.94,11.09l-10.22 10.22c0.59,9.34 -5.25,18.69 -17.22,28.32l-9.34 11.1c-5.55,6.71 -13.14,14.88 -22.19,23.94l-15.48 38.53c-6.13,14.89 -9.34,25.99 -9.34,33.29 -1.75,3.5 -5.55,7 -11.38,10.8 -6.14,3.5 -9.06,8.46 -9.06,14.01 0,1.17 2.05,4.09 5.84,8.47 4.09,4.67 6.13,8.17 6.13,10.51l-3.5 11.09 -3.21 31.53 8.47 27.45zm352.38 -590.33l-19.85 28.32c-7.01,2.34 -17.81,8.17 -32.7,17.81 -14.89,9.63 -23.65,17.22 -26.57,22.19l-11.09 5.25c-4.67,2.34 -10.51,7.01 -17.23,14.02 -6.71,7.29 -14.01,10.8 -21.31,10.8l-18.98 -5.26 -8.46 3.51 -11.1 -6.72c-9.05,4.38 -14.3,6.72 -15.47,6.72 -10.8,0 -16.06,-7.01 -16.06,-21.32 0,-8.46 10.51,-19.27 31.53,-31.82 2.92,-10.22 12.85,-21.31 30.07,-33.28l8.47 -8.47c4.96,-8.17 10.8,-14.01 16.93,-18.1 6.43,-3.79 10.81,-9.34 12.85,-16.64 2.34,-7.01 7.3,-16.64 14.6,-28.61 7.59,-11.97 11.97,-22.77 13.72,-32.41 2.92,-2.92 6.71,-8.76 11.68,-17.22 4.67,-8.47 13.72,-12.85 27.15,-12.85 4.38,0 7.88,1.46 10.22,4.38 2.33,2.63 4.67,4.09 6.71,4.09l33.58 -3.21c28.9,0 43.21,11.67 43.21,35.03 0,3.21 -5.55,12.85 -16.94,28.61 -11.09,15.77 -19.85,29.49 -26.27,41.46l-18.69 13.72zm468.59 -66.86l-5.26 -33.28 0 -5.25c0,-26.57 9.05,-41.46 27.45,-44.38 3.79,-0.58 16.05,-4.38 35.91,-11.1 10.21,2.34 21.02,11.39 32.11,26.86 11.09,15.77 16.64,29.49 16.64,41.46 0,1.17 -0.87,3.8 -2.63,7.59 -1.75,4.09 -2.92,11.68 -3.5,22.77 -0.29,11.1 -6.13,20.73 -16.64,29.2 -10.51,8.17 -21.6,12.26 -33.57,12.26 -8.18,0 -18.11,-5.55 -30.66,-16.64 -12.26,-11.09 -18.68,-21.02 -19.85,-29.49zm-369.61 428l13.72 -11.97 5.25 0c4.09,0 9.93,-4.37 18.1,-12.84l8.47 -3.5c11.68,-16.94 21.61,-26.86 30.36,-29.78l13.73 -10.22c2.33,-2.34 5.54,-4.38 9.92,-6.13 4.38,-1.76 11.1,-7.3 20.73,-16.64 9.34,-9.35 17.23,-14.02 22.77,-14.02 5.84,0 10.51,0.59 14.02,1.75 3.21,-7 10.21,-13.72 20.43,-20.14 10.51,-6.72 18.98,-14.6 25.11,-23.65l11.39 -4.96c9.05,-4.67 17.22,-10.51 24.52,-17.52 7.01,-7.3 16.35,-10.8 28.03,-10.8 16.64,0 33.86,8.46 51.97,25.11 17.8,16.93 26.86,32.99 26.86,48.46l-14.6 66.86c-9.64,49.04 -20.44,74.74 -32.41,77.07l-3.5 17.81c-7.88,5.84 -11.97,10.51 -11.97,13.72l5.25 20.73c0,2.63 -3.21,7.01 -9.34,12.85 -1.17,0 -1.75,1.75 -1.75,4.96l0 35.03c0,6.43 -4.09,11.68 -11.97,15.48 1.17,1.17 2.92,2.33 4.96,3.5 3.51,-3.5 11.1,-5.25 23.07,-5.25l13.72 1.75 18.68 -18.69c3.8,-1.16 9.35,-3.79 16.35,-8.17 7.01,-4.38 18.98,-9.93 35.91,-16.64l110.94 -85.84c15.19,-15.47 26.86,-23.06 34.75,-23.06 8.46,0 12.55,5.55 12.55,16.35 0,12.55 -2.34,22.77 -7.3,31.24 -4.67,8.17 -9.34,18.1 -13.14,29.78 -4.08,11.67 -8.76,19.85 -14.01,24.23 -5.55,4.67 -9.93,9.63 -13.43,15.18 -3.21,5.26 -12.55,13.14 -27.74,23.36 -14.89,10.21 -27.73,20.72 -38.24,31.24 -10.51,10.51 -19.27,18.1 -26.28,22.77l-36.49 26.27 -5.26 8.76c-1.16,1.17 -6.42,3.5 -15.76,7.3 -9.34,3.5 -17.81,8.17 -25.11,14.01l-15.47 8.47c-3.21,2.34 -9.05,3.8 -16.64,4.38 -7.59,0.58 -14.31,3.8 -20.15,9.93 -5.55,5.84 -10.22,8.75 -13.43,8.75l-12.84 -1.75 -17.23 5.26c-9.63,0 -21.31,-5.84 -35.33,-17.52 -14.01,-11.68 -21.02,-24.23 -21.02,-37.37l0 -4.96 1.76 -11.97c0,-2.34 -1.76,-8.18 -5.26,-17.52 -3.21,-9.63 -4.96,-14.89 -4.96,-16.06l1.75 -11.97 -1.75 -4.96c0,-15.47 1.17,-25.11 3.5,-29.19 2.04,-4.09 3.8,-9.64 4.96,-16.65 1.17,-7.29 2.34,-13.13 3.51,-17.51l4.08 -21.61c2.34,-6.71 5.26,-11.38 8.76,-13.43 1.17,-4.67 3.21,-12.26 6.72,-23.35l3.5 -15.18 8.47 -11.97c4.67,-4.68 7.3,-10.81 8.17,-18.4 0.88,-7.88 3.8,-16.06 9.05,-24.52 4.97,-8.47 7.59,-13.72 7.59,-15.48 0,-6.71 -3.21,-10.21 -10.21,-10.21 -2.34,0 -9.35,4.67 -21.32,13.72l-15.47 -5.26c-1.17,0 -4.38,2.92 -9.34,8.76 0,2.34 -2.63,3.8 -7.89,4.96 -5.25,1.17 -9.92,5.55 -14.59,12.85l-6.72 1.75 -11.38 -4.96 -3.22 0c-5.83,0 -9.34,6.13 -10.51,18.68 -6.13,9.35 -14.3,15.19 -24.81,18.11l-18.69 4.96c-6.42,2.33 -10.8,7.59 -13.72,15.47 -2.92,8.18 -8.76,15.48 -17.22,21.9 -8.47,6.71 -14.31,9.92 -17.23,9.92 -16.06,0 -23.94,-8.75 -23.94,-26.56l7.01 -40 -1.75 -5.26zm1181.81 75.04l13.43 -11.97c8.47,0 13.73,-3.8 15.19,-11.68 1.75,-7.59 7.88,-13.72 18.39,-18.4 10.51,-4.37 20.14,-13.72 29.19,-27.73 9.05,-14.01 18.4,-21.02 28.03,-21.02 3.5,0 7.3,2.92 11.97,8.47 4.38,5.83 6.72,10.21 6.72,13.72 0,18.97 -5.84,38.24 -17.23,58.1l-3.21 23.94 -6.13 11.38c-8.47,4.38 -14.02,9.34 -16.64,14.31 -2.63,5.25 -9.35,11.38 -20.15,18.97l-8.46 11.97c-12.56,4.09 -21.02,10.51 -25.11,19.57 -4.38,9.34 -10.22,14.3 -18.1,15.47 -7.59,1.17 -16.06,6.71 -25.11,17.22 -5.84,2.63 -12.55,5.26 -20.44,7.59l-1.75 8.47c-5.84,5.84 -14.89,10.22 -27.15,13.72 -11.97,3.51 -21.31,6.72 -27.15,9.93 -6.13,3.21 -10.22,4.67 -12.56,4.67 -10.8,0 -20.72,-2.04 -29.78,-6.42 -9.05,-4.38 -18.68,-7.01 -28.31,-8.18 -3.22,-3.21 -5.26,-7 -5.84,-11.09 -0.59,-3.8 -3.51,-9.05 -8.76,-15.77 -4.97,-6.42 -7.59,-15.47 -7.59,-26.86l3.5 -16.35c0,-2.04 -1.46,-4.96 -4.38,-8.46 -2.92,-3.21 -4.38,-6.13 -4.38,-8.47 0,-2.33 0.59,-4.09 1.75,-5.25 1.17,-0.88 1.76,-2.63 1.76,-4.97 0,-2.92 -0.59,-6.13 -1.76,-9.34 -1.16,-3.5 -1.75,-6.42 -1.75,-8.47l5.26 -42.04c0,-3.5 -1.17,-4.96 -3.51,-4.96 -2.04,0 -6.42,2.63 -12.26,8.47 -6.13,5.84 -13.14,8.46 -21.02,8.46 -4.67,3.51 -8.17,10.8 -11.09,21.61 -4.67,5.54 -10.22,10.8 -17.23,15.47l-3.5 4.96c-1.17,4.09 -5.26,7.3 -12.85,9.93 -7.3,2.63 -12.55,5.84 -15.18,9.93l-8.76 8.46 -16.35 -1.75c-0.87,1.17 -4.08,6.13 -9.34,14.89 -4.96,9.05 -11.68,16.35 -19.56,21.9l-65.11 53.13c-7,4.67 -16.93,10.22 -30.07,17.23l-5.25 4.96c-45.55,30.36 -77.95,45.55 -96.64,45.55 -15.47,0 -33.57,-4.38 -54.01,-12.85 -20.44,-8.47 -31.53,-18.69 -33.28,-30.95l-8.76 -35.03c-4.96,-7.88 -7.59,-18.98 -7.59,-33.28 0,-7.01 0.58,-11.39 1.75,-13.73l0 -5.25 -1.75 -28.03c0,-7.01 5.55,-10.51 16.35,-10.51l-1.75 -23.06c0,-2.34 4.96,-11.1 14.89,-26.86 9.92,-15.77 16.64,-24.82 20.14,-27.15l8.47 -11.1c-0.59,-6.71 3.5,-14.01 11.97,-21.89 8.76,-7.6 15.47,-15.48 20.73,-23.36 5.25,-8.18 14.89,-16.93 29.19,-26.57l25.69 -25.69c20.15,-20.14 42.04,-35.91 65.4,-47.88 3.5,-1.17 10.51,-7.01 21.02,-17.23 10.51,-10.21 22.77,-17.8 36.2,-22.77 13.43,-4.67 26.57,-10.8 39.42,-18.39 12.84,-7.3 23.06,-11.09 30.36,-11.09l7.01 0c2.33,0 17.51,-7.01 45.54,-21.32l4.96 0c2.34,0 7.89,2.34 16.35,6.72l1.76 0 13.72 -6.72c2.33,-1.16 5.25,-1.75 8.76,-1.75 35.32,0 54.88,24.53 58.39,73.28 1.16,10.22 4.08,15.47 8.46,15.47 5.84,0 14.02,-10.51 24.53,-31.23 10.51,-20.73 32.99,-31.24 67.15,-31.24 24.52,0 36.78,15.76 36.78,47 0,37.08 -16.35,72.41 -49.34,105.4 -2.33,4.67 -4.09,9.63 -5.25,15.47l-11.97 35.03 0 1.76c0,3.21 -2.34,8.17 -7.3,14.01 -4.97,6.13 -7.3,11.38 -7.3,15.76l1.75 21.61 -3.5 23.94c0,10.8 2.04,17.81 6.13,21.31 18.1,-4.67 31.24,-12.26 39.41,-22.77 8.18,-10.51 14.02,-16.35 17.23,-17.52l8.46 -3.5c5.26,-8.47 11.1,-15.48 18.1,-21.31zm-284.06 0.29c2.04,-12.56 9.05,-21.9 20.72,-28.61 11.68,-6.43 18.69,-13.14 21.02,-20.15 10.81,-7.88 26.28,-22.19 46.42,-42.62 20.15,-20.44 30.08,-32.99 30.08,-37.66 0,-1.46 -1.17,-2.34 -3.22,-2.34l-1.75 0 -7 4.09 -15.19 -1.75 -16.35 1.75 -11.67 -5.84 -11.1 1.75 -17.22 -3.5c-9.05,0 -16.94,1.75 -23.36,5.54 -6.42,3.8 -18.98,7.89 -37.37,12.27 -18.68,4.67 -35.32,12.55 -49.92,23.64 -14.89,11.1 -25.69,16.64 -32.41,16.64 -4.09,8.47 -17.22,20.73 -40,36.79 -13.72,4.38 -22.48,14.31 -26.56,29.78 -14.6,11.97 -22.19,18.68 -22.19,20.44l-5.84 14.59c-4.67,4.09 -10.22,7.3 -17.23,9.93 -6.71,2.34 -10.8,8.47 -11.97,17.81 -1.16,9.34 -4.96,17.81 -11.38,25.69 -6.72,7.59 -9.93,13.72 -9.93,18.39 0,27.74 5.55,41.75 16.35,41.75 4.38,0 14.01,-2.92 28.61,-9.05 14.6,-5.84 22.77,-9.92 25.11,-12.26 2.34,-2.34 6.71,-4.67 13.72,-7.01l16.06 -8.46c2.33,-2.34 4.96,-3.51 7.59,-4.09 2.92,-0.58 5.84,-2.63 8.76,-5.55 2.63,-3.21 7.88,-6.71 15.18,-10.51 7.59,-3.5 13.14,-8.46 17.22,-14.89 9.64,-5.54 25.11,-14.3 46.72,-26.27l17.81 -13.72c12.55,-5.84 20.14,-10.51 23.06,-14.6 2.92,-4.09 8.47,-7.88 17.23,-11.97z"/>
   <path class="fil1" d="M4872.83 1493.04l11.97 -21.61c3.21,-4.96 7.89,-10.22 13.14,-15.76 5.55,-5.26 11.39,-19.27 17.52,-41.75 6.13,-22.48 13.14,-38.25 21.02,-46.71 7.59,-8.47 18.68,-12.85 33.57,-12.85 8.47,0 19.86,4.09 33.87,12.26 13.72,8.47 27.44,33.28 40.87,75.03 13.43,41.46 19.86,70.95 19.86,87.88 0,7.01 2.04,15.77 6.13,26.28 4.08,10.51 6.42,18.68 7.59,24.23 -4.38,9.92 -6.72,15.18 -6.72,16.35l1.75 35.03 -10.21 28.32 0 20.44c-7.01,11.38 -10.51,18.39 -10.51,21.31 0,3.5 1.16,7.01 3.5,10.22 26.86,-11.39 43.21,-20.44 48.75,-27.74 5.84,-7 11.39,-11.38 16.94,-13.13 5.25,-1.76 14.3,-9.06 26.86,-22.19l16.35 -8.76c5.84,-6.72 10.51,-12.85 14.59,-18.39 4.09,-5.26 8.76,-9.05 14.31,-11.39 5.26,-2.34 11.68,-6.42 19.27,-11.97 7.3,-5.84 18.39,-12.26 32.41,-19.85l8.75 -10.22c8.47,-9.64 18.69,-17.23 30.37,-23.07 11.68,-5.54 18.1,-8.46 19.27,-8.46 4.08,0 8.17,5.25 12.55,15.76 4.38,10.51 6.42,21.02 6.42,31.24 0,9.64 -5.54,19.27 -16.64,28.61 -11.09,9.35 -18.68,16.35 -22.77,21.02 -4.09,4.67 -13.14,8.47 -27.44,11.97 -1.17,0.59 -10.51,12.27 -28.03,35.04l-17.23 10.22 -8.46 11.09c-1.17,2.34 -9.05,4.67 -23.07,7.01 -0.58,0 -2.04,2.62 -4.08,8.46 -2.05,5.55 -8.18,9.64 -18.4,11.97 -20.43,18.69 -30.94,29.49 -31.53,31.53l-18.1 3.51c-3.21,10.8 -6.13,17.52 -8.47,19.56 -13.72,3.5 -21.31,9.34 -23.06,17.22 -1.75,1.17 -4.67,2.34 -8.76,3.51l-3.21 2.62c-13.14,10.22 -25.98,16.35 -38.54,18.69l-19.85 5.25 -6.72 10.22c0,2.63 -7,6.43 -21.02,11.1 -14.01,4.38 -24.23,10.22 -31.23,16.93l-14.6 11.09c-17.52,7.01 -28.61,13.14 -33.28,18.98l-11.97 0c-7.89,0 -20.44,5.84 -37.67,17.52 -17.22,11.68 -30.94,17.52 -41.16,17.52 -32.99,0 -55.76,-4.09 -68.03,-12.27 -12.26,-8.46 -22.48,-18.68 -30.36,-30.94 -7.88,-12.27 -15.18,-21.9 -21.9,-29.49 -6.42,-7.3 -9.63,-13.43 -9.63,-17.81 0,-4.09 2.63,-7.88 7.88,-11.97 5.55,-4.09 11.39,-12.26 17.81,-24.52 6.13,-11.97 22.19,-19.86 47.88,-23.36 1.17,0 5.26,-1.75 12.56,-5.25 7,-3.22 12.84,-4.97 17.51,-4.97 5.55,0 12.85,4.97 21.31,15.48 0,0.87 1.17,1.46 3.51,1.46l13.72 -1.46c6.13,4.38 10.51,6.71 12.85,6.71 13.72,0 28.32,-6.71 43.5,-20.44l3.5 -1.75 7.01 0c1.75,0 4.38,-4.96 8.46,-14.6l14.6 -30.07 30.07 -38.24 0 -8.76c0,-1.75 1.46,-6.72 4.97,-15.47l0 -12.56c0,-5.25 3.5,-8.46 10.21,-9.92 7.01,-1.46 10.51,-4.97 10.51,-10.81l-1.75 -6.71c-4.67,-6.42 -7,-11.1 -7,-14.6l8.75 -17.22 -1.75 -17.81 3.51 -7.01c-2.34,-7.88 -3.51,-12.55 -3.51,-13.72l3.51 -21.31c0,-0.59 -1.76,-5.84 -4.97,-16.35 -2.92,-10.22 -5.54,-15.18 -7.3,-15.18 -3.21,0 -14.01,8.75 -32.4,26.56 -18.1,17.52 -28.91,30.07 -32.41,37.66 -3.5,7.3 -10.8,14.02 -21.9,19.86 -11.09,6.13 -18.68,12.84 -22.48,20.14 -4.08,7.59 -9.05,11.68 -14.59,12.85l-57.52 46.13 -62.18 46.42c-4.68,4.96 -7.59,7.59 -8.76,7.59 -21.02,0 -31.53,-11.68 -31.53,-35.04 0,-7.59 4.38,-20.73 12.84,-40.29 4.09,-2.33 7.01,-3.79 9.05,-4.96 1.75,-1.17 2.92,-2.04 2.92,-2.63 0,-0.58 -0.58,-0.87 -1.75,-0.87l4.96 3.5 1.76 0c21.02,-14.31 34.74,-22.77 41.16,-24.82 6.13,-2.33 11.97,-8.75 16.93,-18.97l35.91 -25.69c9.05,-6.72 23.07,-19.27 41.75,-37.67 18.69,-18.1 30.66,-31.53 35.91,-39.99z"/>
  </g>
 </g>
</svg>
